<svg width="512" height="512" xmlns="http://www.w3.org/2000/svg">

 <g>
  <title>background</title>
  <rect fill="none" id="canvas_background" height="402" width="582" y="-1" x="-1"/>
 </g>
 <g>
  <title>Layer 1</title>
  <path id="svg_1" fill="#ffffff" d="m415,177.721c-10.697,4.755 -22.209,7.962 -34.288,9.397c12.333,-7.383 21.79,-19.079 26.25,-33.03c-11.536,6.845 -24.306,11.814 -37.909,14.495c-10.886,-11.6 -26.403,-18.854 -43.573,-18.854c-32.964,0 -59.693,26.727 -59.693,59.699c0,4.672 0.526,9.226 1.548,13.603c-49.616,-2.493 -93.609,-26.255 -123.053,-62.374c-5.139,8.812 -8.081,19.066 -8.081,30.017c0,20.709 10.538,38.984 26.556,49.687c-9.781,-0.313 -18.99,-3 -27.041,-7.472c-0.006,0.248 -0.006,0.502 -0.006,0.755c0,28.919 20.579,53.041 47.891,58.535c-5.009,1.359 -10.283,2.092 -15.729,2.092c-3.851,0 -7.591,-0.373 -11.235,-1.075c7.602,23.715 29.646,40.981 55.765,41.458c-20.431,16.013 -46.166,25.559 -74.14,25.559c-4.814,0 -9.569,-0.284 -14.241,-0.839c26.426,16.946 57.802,26.822 91.512,26.822c109.811,0 169.852,-90.963 169.852,-169.852c0,-2.588 -0.053,-5.168 -0.165,-7.731c11.659,-8.4 21.782,-18.919 29.78,-30.892z"/>
  <path stroke="null" id="svg_2" fill="#ffffff" d="m255.660002,0.260062c-140.324416,0 -254.079937,114.27488 -254.079937,255.239957s113.755521,255.239957 254.079937,255.239957s254.079937,-114.27488 254.079937,-255.239957s-113.755521,-255.239957 -254.079937,-255.239957zm168.385897,424.394632c-44.977464,45.182812 -104.777676,70.066038 -168.385897,70.066038c-63.608221,0 -123.408433,-24.883226 -168.385897,-70.066038c-44.977464,-45.182812 -69.747601,-105.256046 -69.747601,-169.154675c0,-63.898629 24.770136,-123.971863 69.747601,-169.154675c44.977464,-45.182812 104.777676,-70.066038 168.385897,-70.066038c63.608221,0 123.408433,24.883226 168.385897,70.066038c44.977464,45.182812 69.747601,105.256046 69.747601,169.154675c0,63.898629 -24.770136,123.971863 -69.747601,169.154675z"/>
 </g>
</svg>